<svg width="19.250000" height="16.585938" viewBox="0 0 19.25 16.5859" fill="none" xmlns="http://www.w3.org/2000/svg" xmlns:xlink="http://www.w3.org/1999/xlink">
	<desc>
			Created with Pixso.
	</desc>
	<defs/>
	<path id="" d="M9.62 2.01C8.3 0.67 6.81 0 5.15 0Q4.09 0 3.19 0.37Q2.26 0.76 1.5 1.54Q0.72 2.32 0.35 3.26Q0 4.13 0 5.15Q-1.2e-7 6.31 0.85 7.6C1.14 8 1.43 8.33 1.71 8.59L9.1 16.07L9.62 16.58L10.14 16.07L17.53 8.59L17.96 8.2C18.24 7.92 18.53 7.49 18.82 6.91C19.1 6.31 19.25 5.72 19.25 5.15C19.25 3.75 18.74 2.54 17.74 1.54C16.74 0.51 15.52 0 14.09 0Q13.35 0 12.66 0.17Q11.01 0.59 9.62 2.01ZM3.81 1.61Q4.43 1.37 5.15 1.37Q6.05 1.37 7.08 1.93Q8.16 2.49 8.5 2.83C8.76 3.03 8.96 3.2 9.1 3.35L9.62 3.95L10.14 3.35L10.65 2.87Q11.21 2.36 12.2 1.89Q13.19 1.37 14.09 1.37C15.12 1.37 16.01 1.74 16.75 2.49C17.5 3.23 17.87 4.12 17.87 5.15Q17.87 6.23 16.58 7.64L9.62 14.6L2.66 7.64L1.97 6.83Q1.37 5.88 1.37 5.15Q1.37 4.43 1.61 3.81Q1.89 3.09 2.49 2.49Q3.09 1.89 3.81 1.61Z" fill="#202224" fill-opacity="1.000000" fill-rule="evenodd"/>
</svg>
