<svg width="19.250000" height="17.273438" viewBox="0 0 19.25 17.2734" fill="none" xmlns="http://www.w3.org/2000/svg" xmlns:xlink="http://www.w3.org/1999/xlink">
	<desc>
			Created with Pixso.
	</desc>
	<defs/>
	<path id="" d="M0.68 0L0 0L0 11L2.75 11L2.75 14.52L3.86 13.57L7.13 11L13.75 11L13.75 0L0.68 0ZM1.37 9.62L1.37 1.37L12.37 1.37L12.37 9.62L6.61 9.62L6.44 9.79L4.12 11.6L4.12 9.62L1.37 9.62ZM19.25 2.75L15.12 2.75L15.12 4.12L17.87 4.12L17.87 12.37L15.12 12.37L15.12 14.35L12.63 12.37L7.47 12.37L5.75 13.75L12.11 13.75L16.5 17.27L16.5 13.75L19.25 13.75L19.25 2.75Z" fill="#202224" fill-opacity="1.000000" fill-rule="evenodd"/>
</svg>
